<svg xmlns="http://www.w3.org/2000/svg" xmlns:xlink="http://www.w3.org/1999/xlink" width="141" zoomAndPan="magnify" viewBox="0 0 105.75 30.000001" height="40" preserveAspectRatio="xMidYMid meet" version="1.0"><defs><g/><clipPath id="0df488a120"><path d="M 1.585938 9 L 9 9 L 9 18 L 1.585938 18 Z M 1.585938 9 " clip-rule="nonzero"/></clipPath></defs><g clip-path="url(#0df488a120)"><g fill="#000000" fill-opacity="1"><g transform="translate(2.500412, 17.16309)"><g><path d="M 6.308594 -0.464844 L 6.308594 -3.789062 L 4.773438 -3.789062 L 4.773438 -1.515625 C 4.636719 -1.492188 4.488281 -1.472656 4.351562 -1.472656 C 1.429688 -1.472656 1.292969 -5.992188 4.351562 -6.097656 C 5.15625 -6.121094 5.644531 -5.949219 5.941406 -5.824219 L 6.121094 -7.359375 C 5.980469 -7.402344 5.25 -7.664062 4.351562 -7.632812 C -0.898438 -7.441406 -0.644531 0.0429688 4.351562 0.0429688 C 5.070312 0.0429688 5.726562 -0.136719 6.308594 -0.464844 Z M 6.308594 -0.464844 "/></g></g></g></g><g fill="#000000" fill-opacity="1"><g transform="translate(9.626069, 17.16309)"><g><path d="M 4.617188 0 L 6.332031 0 L 4.574219 -3.125 C 6.796875 -3.769531 6.53125 -7.570312 3.832031 -7.570312 L 0.847656 -7.570312 L 0.847656 0 L 2.359375 0 L 2.359375 -2.890625 L 3.089844 -2.890625 Z M 2.359375 -4.363281 L 2.359375 -6.054688 L 3.695312 -6.054688 C 4.722656 -6.054688 4.722656 -4.363281 3.695312 -4.363281 Z M 2.359375 -4.363281 "/></g></g></g><g fill="#000000" fill-opacity="1"><g transform="translate(16.116455, 17.16309)"><g><path d="M 0.167969 0 L 1.882812 0 L 2.179688 -0.816406 L 4.691406 -0.816406 L 4.996094 0 L 6.703125 0 L 3.515625 -7.84375 L 3.355469 -7.84375 Z M 2.730469 -2.234375 L 3.441406 -4.203125 L 4.128906 -2.234375 Z M 2.730469 -2.234375 "/></g></g></g><g fill="#000000" fill-opacity="1"><g transform="translate(23.030365, 17.16309)"><g><path d="M 2.359375 0 L 2.359375 -2.890625 L 3.820312 -2.890625 C 6.753906 -2.890625 6.765625 -7.558594 3.820312 -7.558594 L 0.847656 -7.558594 L 0.847656 0 Z M 2.359375 -4.363281 L 2.359375 -6.054688 L 3.695312 -6.054688 C 4.710938 -6.054688 4.710938 -4.363281 3.695312 -4.363281 Z M 2.359375 -4.363281 "/></g></g></g><g fill="#000000" fill-opacity="1"><g transform="translate(29.414877, 17.16309)"><g><path d="M 6.140625 0 L 6.140625 -7.570312 L 4.625 -7.570312 L 4.625 -4.542969 L 2.359375 -4.542969 L 2.359375 -7.570312 L 0.847656 -7.570312 L 0.847656 0 L 2.359375 0 L 2.359375 -3.027344 L 4.625 -3.027344 L 4.625 0 Z M 6.140625 0 "/></g></g></g><g fill="#000000" fill-opacity="1"><g transform="translate(36.413483, 17.16309)"><g><path d="M 2.359375 0 L 2.359375 -7.570312 L 0.847656 -7.570312 L 0.847656 0 Z M 2.359375 0 "/></g></g></g><g fill="#000000" fill-opacity="1"><g transform="translate(39.632207, 17.16309)"><g><path d="M 5.664062 -5.8125 L 5.84375 -7.367188 C 5.390625 -7.570312 4.882812 -7.664062 4.351562 -7.664062 C -0.773438 -7.664062 -0.785156 0.0195312 4.351562 0.0195312 C 4.882812 0.0195312 5.546875 -0.105469 6.015625 -0.296875 L 5.8125 -1.863281 C 5.527344 -1.714844 5.007812 -1.523438 4.351562 -1.523438 C 1.355469 -1.523438 1.355469 -6.140625 4.351562 -6.140625 C 5.007812 -6.140625 5.378906 -5.960938 5.664062 -5.8125 Z M 5.664062 -5.8125 "/></g></g></g><g fill="#000000" fill-opacity="1"><g transform="translate(46.006124, 17.16309)"><g/></g></g><g fill="#000000" fill-opacity="1"><g transform="translate(49.013087, 17.16309)"><g><path d="M 3.101562 -7.570312 L 0.847656 -7.570312 L 0.847656 0 L 3.101562 0 C 8.140625 0 8.140625 -7.570312 3.101562 -7.570312 Z M 3.101562 -6.054688 C 6.046875 -6.054688 6.046875 -1.515625 3.101562 -1.515625 L 2.359375 -1.515625 L 2.359375 -6.054688 Z M 3.101562 -6.054688 "/></g></g></g><g fill="#000000" fill-opacity="1"><g transform="translate(56.466976, 17.16309)"><g><path d="M 4.765625 0 L 4.765625 -1.515625 L 2.359375 -1.515625 L 2.359375 -3.027344 L 4.351562 -3.027344 L 4.351562 -4.542969 L 2.359375 -4.542969 L 2.359375 -6.054688 L 4.636719 -6.054688 L 4.636719 -7.570312 L 0.847656 -7.570312 L 0.847656 0 Z M 4.765625 0 "/></g></g></g><g fill="#000000" fill-opacity="1"><g transform="translate(61.803289, 17.16309)"><g><path d="M 0.496094 -0.488281 C 1.523438 0.0429688 2.46875 0.09375 2.890625 0.0625 C 4.308594 -0.0117188 5.175781 -0.972656 5.175781 -2.234375 C 5.175781 -3.441406 4.160156 -4.117188 2.984375 -4.554688 C 2.550781 -4.699219 2.179688 -4.890625 2.140625 -5.316406 C 2.105469 -5.738281 2.351562 -6.128906 2.890625 -6.164062 C 3.125 -6.171875 3.601562 -6.183594 4.4375 -5.84375 L 4.625 -7.304688 C 3.652344 -7.644531 3.132812 -7.644531 2.742188 -7.625 C 1.480469 -7.558594 0.601562 -6.585938 0.601562 -5.316406 C 0.601562 -4.042969 1.664062 -3.441406 2.847656 -3.007812 C 3.273438 -2.859375 3.601562 -2.667969 3.632812 -2.234375 C 3.675781 -1.820312 3.292969 -1.503906 2.847656 -1.472656 C 2.5 -1.441406 1.554688 -1.460938 0.6875 -2.074219 Z M 0.496094 -0.488281 "/></g></g></g><g fill="#000000" fill-opacity="1"><g transform="translate(67.404287, 17.16309)"><g><path d="M 2.359375 0 L 2.359375 -7.570312 L 0.847656 -7.570312 L 0.847656 0 Z M 2.359375 0 "/></g></g></g><g fill="#000000" fill-opacity="1"><g transform="translate(70.623012, 17.16309)"><g><path d="M 6.308594 -0.464844 L 6.308594 -3.789062 L 4.773438 -3.789062 L 4.773438 -1.515625 C 4.636719 -1.492188 4.488281 -1.472656 4.351562 -1.472656 C 1.429688 -1.472656 1.292969 -5.992188 4.351562 -6.097656 C 5.15625 -6.121094 5.644531 -5.949219 5.941406 -5.824219 L 6.121094 -7.359375 C 5.980469 -7.402344 5.25 -7.664062 4.351562 -7.632812 C -0.898438 -7.441406 -0.644531 0.0429688 4.351562 0.0429688 C 5.070312 0.0429688 5.726562 -0.136719 6.308594 -0.464844 Z M 6.308594 -0.464844 "/></g></g></g><g fill="#000000" fill-opacity="1"><g transform="translate(77.748669, 17.16309)"><g><path d="M 2.359375 -4.117188 L 6.195312 0.160156 L 6.597656 0.160156 L 6.597656 -7.558594 L 5.070312 -7.558594 L 5.070312 -3.28125 L 1.25 -7.730469 L 0.847656 -7.730469 L 0.847656 0 L 2.359375 0 Z M 2.359375 -4.117188 "/></g></g></g><g fill="#000000" fill-opacity="1"><g transform="translate(85.202558, 17.16309)"><g><path d="M 2.359375 0 L 2.359375 -7.570312 L 0.847656 -7.570312 L 0.847656 0 Z M 2.359375 0 "/></g></g></g><g fill="#000000" fill-opacity="1"><g transform="translate(88.421282, 17.16309)"><g><path d="M 2.359375 -4.117188 L 6.195312 0.160156 L 6.597656 0.160156 L 6.597656 -7.558594 L 5.070312 -7.558594 L 5.070312 -3.28125 L 1.25 -7.730469 L 0.847656 -7.730469 L 0.847656 0 L 2.359375 0 Z M 2.359375 -4.117188 "/></g></g></g><g fill="#000000" fill-opacity="1"><g transform="translate(95.875171, 17.16309)"><g><path d="M 6.308594 -0.464844 L 6.308594 -3.789062 L 4.773438 -3.789062 L 4.773438 -1.515625 C 4.636719 -1.492188 4.488281 -1.472656 4.351562 -1.472656 C 1.429688 -1.472656 1.292969 -5.992188 4.351562 -6.097656 C 5.15625 -6.121094 5.644531 -5.949219 5.941406 -5.824219 L 6.121094 -7.359375 C 5.980469 -7.402344 5.25 -7.664062 4.351562 -7.632812 C -0.898438 -7.441406 -0.644531 0.0429688 4.351562 0.0429688 C 5.070312 0.0429688 5.726562 -0.136719 6.308594 -0.464844 Z M 6.308594 -0.464844 "/></g></g></g></svg>