<svg xmlns="http://www.w3.org/2000/svg" xmlns:xlink="http://www.w3.org/1999/xlink" width="141" zoomAndPan="magnify" viewBox="0 0 105.75 30.000001" height="40" preserveAspectRatio="xMidYMid meet" version="1.0"><defs><g/></defs><g fill="#000000" fill-opacity="1"><g transform="translate(12.263102, 16.69355)"><g><path d="M 4.761719 0 L 4.761719 -1.511719 L 2.359375 -1.511719 L 2.359375 -3.027344 L 4.347656 -3.027344 L 4.347656 -4.539062 L 2.359375 -4.539062 L 2.359375 -6.054688 L 4.636719 -6.054688 L 4.636719 -7.566406 L 0.847656 -7.566406 L 0.847656 0 Z M 4.761719 0 "/></g></g></g><g fill="#000000" fill-opacity="1"><g transform="translate(17.595868, 16.69355)"><g><path d="M 2.359375 -4.117188 L 6.191406 0.160156 L 6.59375 0.160156 L 6.59375 -7.554688 L 5.070312 -7.554688 L 5.070312 -3.28125 L 1.25 -7.726562 L 0.847656 -7.726562 L 0.847656 0 L 2.359375 0 Z M 2.359375 -4.117188 "/></g></g></g><g fill="#000000" fill-opacity="1"><g transform="translate(25.044809, 16.69355)"><g><path d="M 3.609375 0 L 3.609375 -6.054688 L 5.492188 -6.054688 L 5.492188 -7.554688 L 0.210938 -7.554688 L 0.210938 -6.054688 L 2.09375 -6.054688 L 2.09375 0 Z M 3.609375 0 "/></g></g></g><g fill="#000000" fill-opacity="1"><g transform="translate(30.832555, 16.69355)"><g><path d="M 4.761719 0 L 4.761719 -1.511719 L 2.359375 -1.511719 L 2.359375 -3.027344 L 4.347656 -3.027344 L 4.347656 -4.539062 L 2.359375 -4.539062 L 2.359375 -6.054688 L 4.636719 -6.054688 L 4.636719 -7.566406 L 0.847656 -7.566406 L 0.847656 0 Z M 4.761719 0 "/></g></g></g><g fill="#000000" fill-opacity="1"><g transform="translate(36.165321, 16.69355)"><g><path d="M 4.613281 0 L 6.328125 0 L 4.570312 -3.121094 C 6.792969 -3.765625 6.527344 -7.566406 3.832031 -7.566406 L 0.847656 -7.566406 L 0.847656 0 L 2.359375 0 L 2.359375 -2.890625 L 3.089844 -2.890625 Z M 2.359375 -4.359375 L 2.359375 -6.054688 L 3.691406 -6.054688 C 4.71875 -6.054688 4.71875 -4.359375 3.691406 -4.359375 Z M 2.359375 -4.359375 "/></g></g></g><g fill="#000000" fill-opacity="1"><g transform="translate(42.651396, 16.69355)"><g><path d="M 3.609375 0 L 3.609375 -6.054688 L 5.492188 -6.054688 L 5.492188 -7.554688 L 0.210938 -7.554688 L 0.210938 -6.054688 L 2.09375 -6.054688 L 2.09375 0 Z M 3.609375 0 "/></g></g></g><g fill="#000000" fill-opacity="1"><g transform="translate(48.439142, 16.69355)"><g><path d="M 0.167969 0 L 1.882812 0 L 2.179688 -0.816406 L 4.6875 -0.816406 L 4.996094 0 L 6.699219 0 L 3.511719 -7.839844 L 3.355469 -7.839844 Z M 2.730469 -2.234375 L 3.4375 -4.199219 L 4.128906 -2.234375 Z M 2.730469 -2.234375 "/></g></g></g><g fill="#000000" fill-opacity="1"><g transform="translate(55.348457, 16.69355)"><g><path d="M 2.359375 0 L 2.359375 -7.566406 L 0.847656 -7.566406 L 0.847656 0 Z M 2.359375 0 "/></g></g></g><g fill="#000000" fill-opacity="1"><g transform="translate(58.565048, 16.69355)"><g><path d="M 2.359375 -4.117188 L 6.191406 0.160156 L 6.59375 0.160156 L 6.59375 -7.554688 L 5.070312 -7.554688 L 5.070312 -3.28125 L 1.25 -7.726562 L 0.847656 -7.726562 L 0.847656 0 L 2.359375 0 Z M 2.359375 -4.117188 "/></g></g></g><g fill="#000000" fill-opacity="1"><g transform="translate(66.013989, 16.69355)"><g><path d="M 4.316406 -4.359375 L 1.332031 -7.683594 L 0.847656 -7.683594 L 0.847656 0 L 2.382812 0 L 2.382812 -4.222656 L 4.316406 -2.191406 L 6.253906 -4.222656 L 6.242188 0 L 7.777344 0 L 7.777344 -7.683594 L 7.300781 -7.683594 Z M 4.316406 -4.359375 "/></g></g></g><g fill="#000000" fill-opacity="1"><g transform="translate(74.647991, 16.69355)"><g><path d="M 4.761719 0 L 4.761719 -1.511719 L 2.359375 -1.511719 L 2.359375 -3.027344 L 4.347656 -3.027344 L 4.347656 -4.539062 L 2.359375 -4.539062 L 2.359375 -6.054688 L 4.636719 -6.054688 L 4.636719 -7.566406 L 0.847656 -7.566406 L 0.847656 0 Z M 4.761719 0 "/></g></g></g><g fill="#000000" fill-opacity="1"><g transform="translate(79.980757, 16.69355)"><g><path d="M 2.359375 -4.117188 L 6.191406 0.160156 L 6.59375 0.160156 L 6.59375 -7.554688 L 5.070312 -7.554688 L 5.070312 -3.28125 L 1.25 -7.726562 L 0.847656 -7.726562 L 0.847656 0 L 2.359375 0 Z M 2.359375 -4.117188 "/></g></g></g><g fill="#000000" fill-opacity="1"><g transform="translate(87.429698, 16.69355)"><g><path d="M 3.609375 0 L 3.609375 -6.054688 L 5.492188 -6.054688 L 5.492188 -7.554688 L 0.210938 -7.554688 L 0.210938 -6.054688 L 2.09375 -6.054688 L 2.09375 0 Z M 3.609375 0 "/></g></g></g><g fill="#000000" fill-opacity="1"><g transform="translate(93.224543, 16.69355)"><g/></g></g></svg>