<svg xmlns="http://www.w3.org/2000/svg" xmlns:xlink="http://www.w3.org/1999/xlink" width="141" zoomAndPan="magnify" viewBox="0 0 105.75 30.000001" height="40" preserveAspectRatio="xMidYMid meet" version="1.0"><defs><g/></defs><g fill="#000000" fill-opacity="1"><g transform="translate(4.913662, 17.235985)"><g><path d="M 5.820312 -5.972656 L 6.003906 -7.570312 C 5.539062 -7.777344 5.015625 -7.875 4.472656 -7.875 C -0.792969 -7.875 -0.804688 0.0234375 4.472656 0.0234375 C 5.015625 0.0234375 5.699219 -0.109375 6.179688 -0.304688 L 5.972656 -1.914062 C 5.679688 -1.761719 5.144531 -1.566406 4.472656 -1.566406 C 1.390625 -1.566406 1.390625 -6.308594 4.472656 -6.308594 C 5.144531 -6.308594 5.527344 -6.125 5.820312 -5.972656 Z M 5.820312 -5.972656 "/></g></g></g><g fill="#000000" fill-opacity="1"><g transform="translate(11.463108, 17.235985)"><g><path d="M 4.613281 0.109375 C 9.964844 0.109375 9.964844 -7.910156 4.613281 -7.910156 C -0.738281 -7.910156 -0.738281 0.109375 4.613281 0.109375 Z M 4.613281 -1.5 C 1.5 -1.5 1.5 -6.308594 4.613281 -6.308594 C 7.722656 -6.308594 7.722656 -1.5 4.613281 -1.5 Z M 4.613281 -1.5 "/></g></g></g><g fill="#000000" fill-opacity="1"><g transform="translate(20.67804, 17.235985)"><g><path d="M 2.425781 -4.230469 L 6.363281 0.164062 L 6.777344 0.164062 L 6.777344 -7.769531 L 5.210938 -7.769531 L 5.210938 -3.371094 L 1.285156 -7.941406 L 0.871094 -7.941406 L 0.871094 0 L 2.425781 0 Z M 2.425781 -4.230469 "/></g></g></g><g fill="#000000" fill-opacity="1"><g transform="translate(28.337199, 17.235985)"><g><path d="M 3.710938 0 L 3.710938 -6.222656 L 5.644531 -6.222656 L 5.644531 -7.769531 L 0.21875 -7.769531 L 0.21875 -6.222656 L 2.152344 -6.222656 L 2.152344 0 Z M 3.710938 0 "/></g></g></g><g fill="#000000" fill-opacity="1"><g transform="translate(34.288275, 17.235985)"><g><path d="M 4.894531 0 L 4.894531 -1.554688 L 2.425781 -1.554688 L 2.425781 -3.113281 L 4.472656 -3.113281 L 4.472656 -4.667969 L 2.425781 -4.667969 L 2.425781 -6.222656 L 4.765625 -6.222656 L 4.765625 -7.777344 L 0.871094 -7.777344 L 0.871094 0 Z M 4.894531 0 "/></g></g></g><g fill="#000000" fill-opacity="1"><g transform="translate(39.771543, 17.235985)"><g><path d="M 2.425781 -4.230469 L 6.363281 0.164062 L 6.777344 0.164062 L 6.777344 -7.769531 L 5.210938 -7.769531 L 5.210938 -3.371094 L 1.285156 -7.941406 L 0.871094 -7.941406 L 0.871094 0 L 2.425781 0 Z M 2.425781 -4.230469 "/></g></g></g><g fill="#000000" fill-opacity="1"><g transform="translate(47.430702, 17.235985)"><g><path d="M 3.710938 0 L 3.710938 -6.222656 L 5.644531 -6.222656 L 5.644531 -7.769531 L 0.21875 -7.769531 L 0.21875 -6.222656 L 2.152344 -6.222656 L 2.152344 0 Z M 3.710938 0 "/></g></g></g><g fill="#000000" fill-opacity="1"><g transform="translate(53.381777, 17.235985)"><g/></g></g><g fill="#000000" fill-opacity="1"><g transform="translate(56.471548, 17.235985)"><g><path d="M 3.253906 0.164062 L 3.523438 0.164062 L 4.9375 -3.316406 L 6.363281 0.128906 L 6.648438 0.128906 L 9.824219 -7.777344 L 8.074219 -7.777344 L 6.507812 -3.808594 L 4.984375 -7.703125 L 4.90625 -7.703125 L 3.382812 -3.808594 L 1.816406 -7.777344 L 0.0664062 -7.777344 Z M 3.253906 0.164062 "/></g></g></g><g fill="#000000" fill-opacity="1"><g transform="translate(66.37188, 17.235985)"><g><path d="M 4.742188 0 L 6.507812 0 L 4.699219 -3.210938 C 6.984375 -3.875 6.710938 -7.777344 3.9375 -7.777344 L 0.871094 -7.777344 L 0.871094 0 L 2.425781 0 L 2.425781 -2.96875 L 3.175781 -2.96875 Z M 2.425781 -4.480469 L 2.425781 -6.222656 L 3.796875 -6.222656 C 4.851562 -6.222656 4.851562 -4.480469 3.796875 -4.480469 Z M 2.425781 -4.480469 "/></g></g></g><g fill="#000000" fill-opacity="1"><g transform="translate(73.041003, 17.235985)"><g><path d="M 2.425781 0 L 2.425781 -7.777344 L 0.871094 -7.777344 L 0.871094 0 Z M 2.425781 0 "/></g></g></g><g fill="#000000" fill-opacity="1"><g transform="translate(76.348368, 17.235985)"><g><path d="M 3.710938 0 L 3.710938 -6.222656 L 5.644531 -6.222656 L 5.644531 -7.769531 L 0.21875 -7.769531 L 0.21875 -6.222656 L 2.152344 -6.222656 L 2.152344 0 Z M 3.710938 0 "/></g></g></g><g fill="#000000" fill-opacity="1"><g transform="translate(82.299443, 17.235985)"><g><path d="M 2.425781 0 L 2.425781 -7.777344 L 0.871094 -7.777344 L 0.871094 0 Z M 2.425781 0 "/></g></g></g><g fill="#000000" fill-opacity="1"><g transform="translate(85.606807, 17.235985)"><g><path d="M 2.425781 -4.230469 L 6.363281 0.164062 L 6.777344 0.164062 L 6.777344 -7.769531 L 5.210938 -7.769531 L 5.210938 -3.371094 L 1.285156 -7.941406 L 0.871094 -7.941406 L 0.871094 0 L 2.425781 0 Z M 2.425781 -4.230469 "/></g></g></g><g fill="#000000" fill-opacity="1"><g transform="translate(93.265966, 17.235985)"><g><path d="M 6.484375 -0.480469 L 6.484375 -3.894531 L 4.90625 -3.894531 L 4.90625 -1.554688 C 4.765625 -1.535156 4.613281 -1.511719 4.472656 -1.511719 C 1.46875 -1.511719 1.328125 -6.15625 4.472656 -6.265625 C 5.296875 -6.289062 5.796875 -6.113281 6.101562 -5.984375 L 6.289062 -7.5625 C 6.148438 -7.605469 5.394531 -7.875 4.472656 -7.84375 C -0.925781 -7.648438 -0.664062 0.0429688 4.472656 0.0429688 C 5.210938 0.0429688 5.886719 -0.140625 6.484375 -0.480469 Z M 6.484375 -0.480469 "/></g></g></g></svg>