<svg xmlns="http://www.w3.org/2000/svg" xmlns:xlink="http://www.w3.org/1999/xlink" width="141" zoomAndPan="magnify" viewBox="0 0 105.75 30.000001" height="40" preserveAspectRatio="xMidYMid meet" version="1.0"><defs><g/></defs><g fill="#000000" fill-opacity="1"><g transform="translate(23.230171, 17.235978)"><g><path d="M 0.511719 -0.5 C 1.566406 0.0429688 2.535156 0.0976562 2.96875 0.0664062 C 4.429688 -0.0117188 5.320312 -1 5.320312 -2.296875 C 5.320312 -3.535156 4.277344 -4.230469 3.066406 -4.679688 C 2.621094 -4.832031 2.242188 -5.027344 2.199219 -5.460938 C 2.164062 -5.898438 2.414062 -6.300781 2.96875 -6.332031 C 3.210938 -6.34375 3.699219 -6.355469 4.558594 -6.003906 L 4.753906 -7.507812 C 3.753906 -7.855469 3.21875 -7.855469 2.816406 -7.832031 C 1.523438 -7.769531 0.621094 -6.765625 0.621094 -5.460938 C 0.621094 -4.15625 1.707031 -3.535156 2.925781 -3.089844 C 3.363281 -2.9375 3.699219 -2.742188 3.730469 -2.296875 C 3.773438 -1.871094 3.382812 -1.542969 2.925781 -1.511719 C 2.566406 -1.480469 1.597656 -1.5 0.707031 -2.132812 Z M 0.511719 -0.5 "/></g></g></g><g fill="#000000" fill-opacity="1"><g transform="translate(28.985414, 17.235978)"><g><path d="M 4.894531 0 L 4.894531 -1.554688 L 2.425781 -1.554688 L 2.425781 -3.113281 L 4.472656 -3.113281 L 4.472656 -4.667969 L 2.425781 -4.667969 L 2.425781 -6.222656 L 4.765625 -6.222656 L 4.765625 -7.777344 L 0.871094 -7.777344 L 0.871094 0 Z M 4.894531 0 "/></g></g></g><g fill="#000000" fill-opacity="1"><g transform="translate(34.468682, 17.235978)"><g><path d="M 4.613281 0.109375 C 9.964844 0.109375 9.964844 -7.910156 4.613281 -7.910156 C -0.738281 -7.910156 -0.738281 0.109375 4.613281 0.109375 Z M 4.613281 -1.5 C 1.5 -1.5 1.5 -6.308594 4.613281 -6.308594 C 7.722656 -6.308594 7.722656 -1.5 4.613281 -1.5 Z M 4.613281 -1.5 "/></g></g></g><g fill="#000000" fill-opacity="1"><g transform="translate(43.683614, 17.235978)"><g/></g></g><g fill="#000000" fill-opacity="1"><g transform="translate(46.773385, 17.235978)"><g><path d="M 3.710938 0 L 3.710938 -6.222656 L 5.644531 -6.222656 L 5.644531 -7.769531 L 0.21875 -7.769531 L 0.21875 -6.222656 L 2.152344 -6.222656 L 2.152344 0 Z M 3.710938 0 "/></g></g></g><g fill="#000000" fill-opacity="1"><g transform="translate(52.72446, 17.235978)"><g><path d="M 4.613281 0.109375 C 9.964844 0.109375 9.964844 -7.910156 4.613281 -7.910156 C -0.738281 -7.910156 -0.738281 0.109375 4.613281 0.109375 Z M 4.613281 -1.5 C 1.5 -1.5 1.5 -6.308594 4.613281 -6.308594 C 7.722656 -6.308594 7.722656 -1.5 4.613281 -1.5 Z M 4.613281 -1.5 "/></g></g></g><g fill="#000000" fill-opacity="1"><g transform="translate(61.939392, 17.235978)"><g><path d="M 4.613281 0.109375 C 9.964844 0.109375 9.964844 -7.910156 4.613281 -7.910156 C -0.738281 -7.910156 -0.738281 0.109375 4.613281 0.109375 Z M 4.613281 -1.5 C 1.5 -1.5 1.5 -6.308594 4.613281 -6.308594 C 7.722656 -6.308594 7.722656 -1.5 4.613281 -1.5 Z M 4.613281 -1.5 "/></g></g></g><g fill="#000000" fill-opacity="1"><g transform="translate(71.154324, 17.235978)"><g><path d="M 0.871094 -7.777344 L 0.871094 0 L 4.894531 0 L 4.894531 -1.554688 L 2.425781 -1.554688 L 2.425781 -7.777344 Z M 0.871094 -7.777344 "/></g></g></g><g fill="#000000" fill-opacity="1"><g transform="translate(76.517916, 17.235978)"><g><path d="M 0.511719 -0.5 C 1.566406 0.0429688 2.535156 0.0976562 2.96875 0.0664062 C 4.429688 -0.0117188 5.320312 -1 5.320312 -2.296875 C 5.320312 -3.535156 4.277344 -4.230469 3.066406 -4.679688 C 2.621094 -4.832031 2.242188 -5.027344 2.199219 -5.460938 C 2.164062 -5.898438 2.414062 -6.300781 2.96875 -6.332031 C 3.210938 -6.34375 3.699219 -6.355469 4.558594 -6.003906 L 4.753906 -7.507812 C 3.753906 -7.855469 3.21875 -7.855469 2.816406 -7.832031 C 1.523438 -7.769531 0.621094 -6.765625 0.621094 -5.460938 C 0.621094 -4.15625 1.707031 -3.535156 2.925781 -3.089844 C 3.363281 -2.9375 3.699219 -2.742188 3.730469 -2.296875 C 3.773438 -1.871094 3.382812 -1.542969 2.925781 -1.511719 C 2.566406 -1.480469 1.597656 -1.5 0.707031 -2.132812 Z M 0.511719 -0.5 "/></g></g></g></svg>