<svg width="71" height="33" viewBox="0 0 71 33" fill="none" xmlns="http://www.w3.org/2000/svg">
<path d="M9.27881 13.0885C9.91402 13.0885 10.429 12.2215 10.429 11.1521C10.429 10.0827 9.91402 9.21582 9.27881 9.21582C8.6436 9.21582 8.12866 10.0827 8.12866 11.1521C8.12866 12.2215 8.6436 13.0885 9.27881 13.0885Z" fill="black"/>
<path d="M23.5125 13.0885C24.1477 13.0885 24.6626 12.2215 24.6626 11.1521C24.6626 10.0827 24.1477 9.21582 23.5125 9.21582C22.8772 9.21582 22.3623 10.0827 22.3623 11.1521C22.3623 12.2215 22.8772 13.0885 23.5125 13.0885Z" fill="black"/>
<path d="M20.6396 20.7705C22.5219 20.889 24.3853 21.2144 26.1963 21.7411C29.0013 22.6146 30.8842 25.0071 30.8842 27.6859C30.8842 30.0847 28.9396 32.0293 26.5408 32.0293H6.43994C4.05187 32.0293 2.11597 30.0934 2.11597 27.7054C2.11597 25.0265 3.99891 22.634 6.80391 21.7605C8.61484 21.2339 10.4783 20.9084 12.3605 20.7899" fill="black"/>
<path d="M13.6125 17.6599L16.5097 18.8343L19.4069 17.6599L19.9262 19.5623L16.5097 21.9305L13.0933 19.5623L13.6125 17.6599Z" fill="black"/>
<path d="M23.731 9.92907C23.731 13.2048 22.1392 16.8736 19.7904 18.7954C18.8507 19.6273 17.6479 20.1015 16.3933 20.1348C15.1536 20.1004 13.9645 19.6354 13.0303 18.8197C10.6766 16.9124 9.06055 13.2242 9.06055 9.92907C9.06055 9.67995 9.07025 9.4373 9.08966 9.20113C10.2148 8.05094 11.5987 7.18651 13.1258 6.67999C14.653 6.17346 16.2792 6.03953 17.8686 6.28936C20.4019 6.62421 21.9451 6.47863 22.8866 6.1923C23.4612 7.35302 23.7507 8.63405 23.731 9.92907Z" fill="black"/>
<path d="M13.0932 19.5623L13.2776 19.6884L16.5097 21.9305L13.8551 24.5753L12.21 20.8289L13.0932 19.5623ZM19.9261 19.5623L19.7417 19.6884L16.5097 21.9305L19.1642 24.5753L20.8094 20.8289L19.9261 19.5623Z" fill="#FD4900"/>
<path d="M23.2942 11.3607H22.6536C22.9099 10.3422 22.7676 9.26418 22.2557 8.34706C22.2557 8.34706 21.1541 9.84177 19.8971 9.735C19.1935 9.67677 18.1792 9.0653 17.4027 8.52662C16.2247 7.67494 14.7567 7.32584 13.3214 7.55603C11.7442 7.84236 10.0068 8.84206 9.38082 11.715H8.73537C8.73537 11.715 7.24552 1.37339 15.8595 1.32C15.8595 1.32 19.9311 2.18383 20.8532 1.32C21.7752 0.456181 23.4252 1.26662 24.027 2.97C25.1238 6.74559 23.2942 11.3607 23.2942 11.3607Z" fill="black"/>
<path d="M45.4538 30.3322H43.7731L44.7815 29.0041C45.521 27.9922 46.0588 26.7906 46.3277 25.2096C41.5546 23.1859 39 19.3914 39 14.3953C39 6.74311 45.1176 2 55 2C64.8824 2 71 6.74311 71 14.3953C71 22.1108 65.0168 26.7906 55 26.7906H54.3277C52.7143 28.4349 50.0252 30.3322 45.4538 30.3322ZM54.8655 3.64428C45.9244 3.64428 40.6134 7.62849 40.6134 14.3953C40.6134 20.1503 44.3782 22.7432 47.4706 23.9448L48.0756 24.1977L48.0084 24.8302C47.8067 26.2847 47.4706 27.5495 46.9328 28.6246C50.1597 28.2452 52.042 26.7274 53.0504 25.4626L53.3193 25.1464H54.7983C67.6387 25.1464 69.0504 17.6206 69.0504 14.3953C69.1176 7.69173 63.8067 3.64428 54.8655 3.64428Z" fill="black"/>
<circle cx="47.5" cy="15.5" r="2.5" fill="black"/>
<circle cx="54.5" cy="15.5" r="2.5" fill="black"/>
<circle cx="61.5" cy="15.5" r="2.5" fill="black"/>
</svg>
