<svg width="47" height="40" viewBox="0 0 47 40" fill="none" xmlns="http://www.w3.org/2000/svg">
<path d="M3.61497 23.8462V3.84615C3.61497 3.63782 3.69109 3.45753 3.84333 3.30529C3.99557 3.15304 4.17587 3.07692 4.3842 3.07692H42.8457C43.0541 3.07692 43.2344 3.15304 43.3866 3.30529C43.5388 3.45753 43.615 3.63782 43.615 3.84615V23.8462C43.615 24.0545 43.5388 24.2348 43.3866 24.387C43.2344 24.5393 43.0541 24.6154 42.8457 24.6154H4.3842C4.17587 24.6154 3.99557 24.5393 3.84333 24.387C3.69109 24.2348 3.61497 24.0545 3.61497 23.8462ZM0.538044 3.84615V30C0.538044 31.0577 0.914646 31.9631 1.66785 32.7163C2.42106 33.4696 3.32651 33.8462 4.3842 33.8462H17.4611C17.4611 34.4391 17.3329 35.0601 17.0765 35.7091C16.8201 36.3582 16.5637 36.9271 16.3073 37.4159C16.0509 37.9046 15.9227 38.2532 15.9227 38.4615C15.9227 38.8782 16.0749 39.2388 16.3794 39.5433C16.6839 39.8478 17.0445 40 17.4611 40H29.7688C30.1855 40 30.5461 39.8478 30.8505 39.5433C31.155 39.2388 31.3073 38.8782 31.3073 38.4615C31.3073 38.2372 31.1791 37.8846 30.9227 37.4038C30.6663 36.9231 30.4098 36.3622 30.1534 35.7212C29.897 35.0801 29.7688 34.4551 29.7688 33.8462H42.8457C43.9034 33.8462 44.8089 33.4696 45.5621 32.7163C46.3153 31.9631 46.6919 31.0577 46.6919 30V3.84615C46.6919 2.78846 46.3153 1.88301 45.5621 1.12981C44.8089 0.376603 43.9034 0 42.8457 0H4.3842C3.32651 0 2.42106 0.376603 1.66785 1.12981C0.914646 1.88301 0.538044 2.78846 0.538044 3.84615Z" fill="black"/>
</svg>
