<svg width="40" height="40" viewBox="0 0 40 40" fill="none" xmlns="http://www.w3.org/2000/svg">
<path d="M12.3542 19.9999C10.1042 20.0694 8.26389 20.9583 6.83333 22.6666H4.04167C2.90278 22.6666 1.94444 22.3853 1.16667 21.8228C0.388889 21.2603 0 20.4374 0 19.3541C0 14.4513 0.861111 11.9999 2.58333 11.9999C2.66667 11.9999 2.96875 12.1458 3.48958 12.4374C4.01042 12.7291 4.6875 13.0242 5.52083 13.3228C6.35417 13.6214 7.18056 13.7708 8 13.7708C8.93056 13.7708 9.85417 13.611 10.7708 13.2916C10.7014 13.8055 10.6667 14.2638 10.6667 14.6666C10.6667 16.5971 11.2292 18.3749 12.3542 19.9999ZM34.6667 33.2708C34.6667 34.9374 34.1597 36.2534 33.1458 37.2187C32.1319 38.1839 30.7847 38.6666 29.1042 38.6666H10.8958C9.21528 38.6666 7.86806 38.1839 6.85417 37.2187C5.84028 36.2534 5.33333 34.9374 5.33333 33.2708C5.33333 32.5346 5.35764 31.8159 5.40625 31.1145C5.45486 30.4131 5.55208 29.6562 5.69792 28.8437C5.84375 28.0312 6.02778 27.2777 6.25 26.5833C6.47222 25.8888 6.77083 25.2117 7.14583 24.552C7.52083 23.8923 7.95139 23.3298 8.4375 22.8645C8.92361 22.3992 9.51736 22.0277 10.2188 21.7499C10.9201 21.4721 11.6944 21.3333 12.5417 21.3333C12.6806 21.3333 12.9792 21.4826 13.4375 21.7812C13.8958 22.0798 14.4028 22.4131 14.9583 22.7812C15.5139 23.1492 16.2569 23.4826 17.1875 23.7812C18.1181 24.0798 19.0556 24.2291 20 24.2291C20.9444 24.2291 21.8819 24.0798 22.8125 23.7812C23.7431 23.4826 24.4861 23.1492 25.0417 22.7812C25.5972 22.4131 26.1042 22.0798 26.5625 21.7812C27.0208 21.4826 27.3194 21.3333 27.4583 21.3333C28.3056 21.3333 29.0799 21.4721 29.7812 21.7499C30.4826 22.0277 31.0764 22.3992 31.5625 22.8645C32.0486 23.3298 32.4792 23.8923 32.8542 24.552C33.2292 25.2117 33.5278 25.8888 33.75 26.5833C33.9722 27.2777 34.1562 28.0312 34.3021 28.8437C34.4479 29.6562 34.5451 30.4131 34.5938 31.1145C34.6424 31.8159 34.6667 32.5346 34.6667 33.2708ZM13.3333 6.66658C13.3333 8.13881 12.8125 9.39575 11.7708 10.4374C10.7292 11.4791 9.47222 11.9999 8 11.9999C6.52778 11.9999 5.27083 11.4791 4.22917 10.4374C3.1875 9.39575 2.66667 8.13881 2.66667 6.66658C2.66667 5.19436 3.1875 3.93742 4.22917 2.89575C5.27083 1.85409 6.52778 1.33325 8 1.33325C9.47222 1.33325 10.7292 1.85409 11.7708 2.89575C12.8125 3.93742 13.3333 5.19436 13.3333 6.66658ZM28 14.6666C28 16.8749 27.2188 18.7603 25.6563 20.3228C24.0938 21.8853 22.2083 22.6666 20 22.6666C17.7917 22.6666 15.9062 21.8853 14.3438 20.3228C12.7812 18.7603 12 16.8749 12 14.6666C12 12.4583 12.7812 10.5728 14.3438 9.01033C15.9062 7.44783 17.7917 6.66658 20 6.66658C22.2083 6.66658 24.0938 7.44783 25.6563 9.01033C27.2188 10.5728 28 12.4583 28 14.6666ZM40 19.3541C40 20.4374 39.6111 21.2603 38.8333 21.8228C38.0556 22.3853 37.0972 22.6666 35.9583 22.6666H33.1667C31.7361 20.9583 29.8958 20.0694 27.6458 19.9999C28.7708 18.3749 29.3333 16.5971 29.3333 14.6666C29.3333 14.2638 29.2986 13.8055 29.2292 13.2916C30.1458 13.611 31.0694 13.7708 32 13.7708C32.8194 13.7708 33.6458 13.6214 34.4792 13.3228C35.3125 13.0242 35.9896 12.7291 36.5104 12.4374C37.0313 12.1458 37.3333 11.9999 37.4167 11.9999C39.1389 11.9999 40 14.4513 40 19.3541ZM37.3333 6.66658C37.3333 8.13881 36.8125 9.39575 35.7708 10.4374C34.7292 11.4791 33.4722 11.9999 32 11.9999C30.5278 11.9999 29.2708 11.4791 28.2292 10.4374C27.1875 9.39575 26.6667 8.13881 26.6667 6.66658C26.6667 5.19436 27.1875 3.93742 28.2292 2.89575C29.2708 1.85409 30.5278 1.33325 32 1.33325C33.4722 1.33325 34.7292 1.85409 35.7708 2.89575C36.8125 3.93742 37.3333 5.19436 37.3333 6.66658Z" fill="black"/>
</svg>
