<svg width="204" height="183" viewBox="0 0 204 183" fill="none" xmlns="http://www.w3.org/2000/svg">
<path d="M24.3298 152.254C23.2273 159.411 22.3377 166.704 20.8575 173.793C20.5102 175.457 20.1326 179.975 18.4453 180.917C16.3083 182.111 14.0212 179.458 12.8703 178.016C9.43062 173.704 6.93869 168.042 4.37346 163.147C3.85914 162.166 1.74312 159.207 2.02589 158.005M18.4491 180.917C15.463 167.914 15.8541 153.804 16.0111 140.527C16.3292 113.579 9.8761 46.0144 32.3258 26.1602C45.6972 14.3342 68.8398 15.2284 85.3442 13.7912C123.828 10.4389 163.378 2.30639 202 2.20495" stroke="black" stroke-width="3" stroke-miterlimit="1.5" stroke-linecap="round" stroke-linejoin="round"/>
</svg>
