<svg width="36" height="40" viewBox="0 0 36 40" fill="none" xmlns="http://www.w3.org/2000/svg">
<path d="M32.2857 2.85714C32.2857 6.74107 31.4933 10.1749 29.9085 13.1585C28.3237 16.1421 26.3408 18.4226 23.9599 20C26.3408 21.5774 28.3237 23.8579 29.9085 26.8415C31.4933 29.8251 32.2857 33.2589 32.2857 37.1429H34.4286C34.6369 37.1429 34.8081 37.2098 34.942 37.3438C35.0759 37.4777 35.1429 37.6488 35.1429 37.8571V39.2857C35.1429 39.494 35.0759 39.6652 34.942 39.7991C34.8081 39.933 34.6369 40 34.4286 40H1.57146C1.36313 40 1.192 39.933 1.05807 39.7991C0.924142 39.6652 0.857178 39.494 0.857178 39.2857V37.8571C0.857178 37.6488 0.924142 37.4777 1.05807 37.3438C1.192 37.2098 1.36313 37.1429 1.57146 37.1429H3.71432C3.71432 33.2589 4.50673 29.8251 6.09155 26.8415C7.67637 23.8579 9.65926 21.5774 12.0402 20C9.65926 18.4226 7.67637 16.1421 6.09155 13.1585C4.50673 10.1749 3.71432 6.74107 3.71432 2.85714H1.57146C1.36313 2.85714 1.192 2.79018 1.05807 2.65625C0.924142 2.52232 0.857178 2.35119 0.857178 2.14286V0.714286C0.857178 0.505952 0.924142 0.334821 1.05807 0.200893C1.192 0.0669643 1.36313 0 1.57146 0H34.4286C34.6369 0 34.8081 0.0669643 34.942 0.200893C35.0759 0.334821 35.1429 0.505952 35.1429 0.714286V2.14286C35.1429 2.35119 35.0759 2.52232 34.942 2.65625C34.8081 2.79018 34.6369 2.85714 34.4286 2.85714H32.2857ZM29.4286 2.85714H6.57146C6.57146 5.92262 7.2039 8.77976 8.46878 11.4286H27.5313C28.7962 8.77976 29.4286 5.92262 29.4286 2.85714ZM28.1563 30C27.3527 27.9018 26.2701 26.1049 24.9085 24.6094C23.5469 23.1138 22.0997 22.0536 20.567 21.4286H15.4331C13.9003 22.0536 12.4532 23.1138 11.0916 24.6094C9.72995 26.1049 8.64736 27.9018 7.84378 30H28.1563Z" fill="black"/>
</svg>
