<svg width="34" height="54" viewBox="0 0 34 54" fill="none" xmlns="http://www.w3.org/2000/svg">
<path d="M3.375 0C1.5111 0 0 1.51106 0 3.375V50.625C0 51.52 0.355499 52.3787 0.988649 53.0114C1.62135 53.6445 2.47995 54 3.375 54H6.75C8.6139 54 10.125 52.4889 10.125 50.625V3.375C10.125 1.51106 8.6139 0 6.75 0H3.375Z" fill="#161616"/>
<path d="M27 0C25.1361 0 23.625 1.51106 23.625 3.375V50.625C23.625 52.4889 25.1361 54 27 54H30.375C32.2389 54 33.75 52.4889 33.75 50.625V3.375C33.75 2.47991 33.3945 1.62144 32.7614 0.988514C32.1287 0.355589 31.27 0 30.375 0H27Z" fill="#161616"/>
</svg>
