<svg xmlns="http://www.w3.org/2000/svg" xmlns:xlink="http://www.w3.org/1999/xlink" width="182" zoomAndPan="magnify" viewBox="0 0 136.5 36.000001" height="48" preserveAspectRatio="xMidYMid meet" version="1.0"><defs><g/><clipPath id="b955a3d56d"><path d="M 85.410156 6.539062 L 134.414062 6.539062 L 134.414062 25.269531 L 85.410156 25.269531 Z M 85.410156 6.539062 " clip-rule="nonzero"/></clipPath></defs><g clip-path="url(#b955a3d56d)"><path fill="#ffde59" d="M 85.410156 6.539062 L 134.414062 6.539062 L 134.414062 25.269531 L 85.410156 25.269531 Z M 85.410156 6.539062 " fill-opacity="1" fill-rule="nonzero"/></g><g fill="#2b2b2b" fill-opacity="1"><g transform="translate(5.436077, 23.614774)"><g><path d="M 9.054688 0.335938 C 14.191406 0.335938 17.148438 -3.300781 17.113281 -8.453125 L 8.914062 -8.453125 L 8.914062 -6.050781 L 13.996094 -6.050781 C 13.558594 -3.855469 11.835938 -2.308594 9.03125 -2.308594 C 6.0625 -2.308594 3.636719 -4.457031 3.636719 -7.863281 C 3.636719 -11.210938 6.0625 -13.441406 9.03125 -13.441406 C 11.257812 -13.441406 13.015625 -12.355469 13.835938 -10.519531 L 16.753906 -10.519531 C 16.015625 -14.054688 12.425781 -16.074219 9.097656 -16.074219 C 4.480469 -16.074219 0.773438 -12.4375 0.773438 -7.863281 C 0.773438 -3.324219 4.480469 0.335938 9.054688 0.335938 Z M 9.054688 0.335938 "/></g></g></g><g fill="#2b2b2b" fill-opacity="1"><g transform="translate(21.40362, 23.614774)"><g><path d="M 4.433594 0 L 4.433594 -5.519531 C 4.433594 -8.046875 5.738281 -9.46875 7.65625 -9.46875 L 8.777344 -9.46875 L 8.777344 -11.871094 L 7.507812 -11.871094 C 5.957031 -11.871094 4.875 -11.027344 4.320312 -9.722656 L 4.320312 -11.871094 L 1.640625 -11.871094 L 1.640625 0 Z M 4.433594 0 "/></g></g></g><g fill="#2b2b2b" fill-opacity="1"><g transform="translate(28.619988, 23.614774)"><g><path d="M 6.386719 0.359375 C 8.3125 0.359375 9.882812 -0.519531 10.660156 -1.996094 L 10.660156 0 L 13.3125 0 L 13.3125 -11.871094 L 10.660156 -11.871094 L 10.660156 -9.863281 C 9.894531 -11.339844 8.3125 -12.230469 6.375 -12.230469 C 3.199219 -12.230469 0.796875 -9.398438 0.796875 -5.933594 C 0.796875 -2.449219 3.175781 0.359375 6.386719 0.359375 Z M 7.054688 -2.230469 C 5.171875 -2.230469 3.566406 -3.625 3.566406 -5.933594 C 3.566406 -8.164062 5.140625 -9.640625 7.054688 -9.640625 C 8.996094 -9.640625 10.542969 -8.003906 10.542969 -5.933594 C 10.542969 -3.832031 9.007812 -2.230469 7.054688 -2.230469 Z M 7.054688 -2.230469 "/></g></g></g><g fill="#2b2b2b" fill-opacity="1"><g transform="translate(41.65508, 23.614774)"><g><path d="M 4.433594 4.054688 L 4.433594 -0.542969 L 4.375 -1.917969 C 5.160156 -0.542969 6.675781 0.359375 8.40625 0.359375 C 11.722656 0.359375 14.15625 -2.449219 14.15625 -5.933594 C 14.15625 -9.398438 11.742188 -12.21875 8.371094 -12.21875 C 6.664062 -12.21875 5.148438 -11.304688 4.296875 -9.875 L 4.296875 -11.871094 L 1.640625 -11.871094 L 1.640625 4.054688 Z M 7.898438 -2.21875 C 6.003906 -2.21875 4.398438 -3.765625 4.398438 -5.933594 C 4.398438 -8.015625 5.957031 -9.640625 7.886719 -9.640625 C 9.816406 -9.640625 11.386719 -8.164062 11.386719 -5.933594 C 11.386719 -3.636719 9.78125 -2.21875 7.898438 -2.21875 Z M 7.898438 -2.21875 "/></g></g></g><g fill="#2b2b2b" fill-opacity="1"><g transform="translate(54.690172, 23.614774)"><g><path d="M 4.433594 0 L 4.433594 -6.0625 C 4.433594 -8.199219 5.933594 -9.652344 7.574219 -9.652344 C 9.261719 -9.652344 10.324219 -8.695312 10.324219 -6.339844 L 10.324219 0 L 13.117188 0 L 13.117188 -6.398438 C 13.117188 -10.128906 11.535156 -12.230469 8.347656 -12.230469 C 6.523438 -12.230469 5.105469 -11.386719 4.363281 -10.09375 L 4.433594 -11.421875 L 4.433594 -16.257812 L 1.640625 -16.257812 L 1.640625 0 Z M 4.433594 0 "/></g></g></g><g fill="#2b2b2b" fill-opacity="1"><g transform="translate(67.436634, 23.614774)"><g><path d="M 3.015625 -13.71875 C 4.144531 -13.71875 4.78125 -14.421875 4.78125 -15.324219 C 4.78125 -16.191406 4.144531 -16.917969 3.027344 -16.917969 C 1.929688 -16.917969 1.292969 -16.191406 1.292969 -15.324219 C 1.292969 -14.433594 1.941406 -13.71875 3.015625 -13.71875 Z M 4.433594 0 L 4.433594 -11.871094 L 1.640625 -11.871094 L 1.640625 0 Z M 4.433594 0 "/></g></g></g><g fill="#2b2b2b" fill-opacity="1"><g transform="translate(71.582006, 23.614774)"><g><path d="M 6.929688 0.359375 C 9.976562 0.359375 12.21875 -1.59375 12.828125 -4.34375 L 9.988281 -4.34375 C 9.46875 -2.863281 8.292969 -2.230469 6.941406 -2.230469 C 5.230469 -2.230469 3.566406 -3.589844 3.566406 -5.933594 C 3.566406 -8.269531 5.21875 -9.628906 6.941406 -9.628906 C 8.292969 -9.628906 9.457031 -8.996094 9.988281 -7.679688 L 12.839844 -7.679688 C 12.171875 -10.289062 9.988281 -12.230469 6.929688 -12.230469 C 3.382812 -12.230469 0.796875 -9.386719 0.796875 -5.933594 C 0.796875 -2.472656 3.382812 0.359375 6.929688 0.359375 Z M 6.929688 0.359375 "/></g></g></g><g fill="#2b2b2b" fill-opacity="1"><g transform="translate(83.116234, 23.614774)"><g/></g></g><g fill="#2b2b2b" fill-opacity="1"><g transform="translate(86.961434, 23.614774)"><g><path d="M 4.746094 0 L 4.746094 -6.628906 L 12.667969 -6.628906 L 12.667969 0 L 15.554688 0 L 15.554688 -15.703125 L 12.667969 -15.703125 L 12.667969 -9.191406 L 4.746094 -9.191406 L 4.746094 -15.703125 L 1.871094 -15.703125 L 1.871094 0 Z M 4.746094 0 "/></g></g></g><g fill="#2b2b2b" fill-opacity="1"><g transform="translate(102.467172, 23.614774)"><g><path d="M 3.015625 -13.71875 C 4.144531 -13.71875 4.78125 -14.421875 4.78125 -15.324219 C 4.78125 -16.191406 4.144531 -16.917969 3.027344 -16.917969 C 1.929688 -16.917969 1.292969 -16.191406 1.292969 -15.324219 C 1.292969 -14.433594 1.941406 -13.71875 3.015625 -13.71875 Z M 4.433594 0 L 4.433594 -11.871094 L 1.640625 -11.871094 L 1.640625 0 Z M 4.433594 0 "/></g></g></g><g fill="#2b2b2b" fill-opacity="1"><g transform="translate(106.612544, 23.614774)"><g><path d="M 7.449219 0 L 12.207031 -11.871094 L 9.214844 -11.871094 L 6.457031 -4.6875 L 6.15625 -3.453125 L 5.84375 -4.699219 L 3.082031 -11.871094 L 0.117188 -11.871094 L 4.851562 0 Z M 7.449219 0 "/></g></g></g><g fill="#2b2b2b" fill-opacity="1"><g transform="translate(117.003808, 23.614774)"><g><path d="M 12.933594 -6.144531 C 12.933594 -9.410156 10.53125 -12.230469 6.953125 -12.230469 C 3.382812 -12.230469 0.796875 -9.398438 0.796875 -5.933594 C 0.796875 -2.472656 3.382812 0.359375 6.953125 0.359375 C 9.90625 0.359375 12.019531 -1.59375 12.621094 -3.730469 L 9.574219 -3.730469 C 9.167969 -2.726562 8.304688 -2.136719 6.894531 -2.136719 C 5.253906 -2.136719 3.890625 -3.257812 3.601562 -5.195312 L 12.875 -5.195312 C 12.921875 -5.636719 12.933594 -5.84375 12.933594 -6.144531 Z M 3.71875 -7.355469 C 4.191406 -9.03125 5.53125 -9.792969 6.941406 -9.792969 C 8.578125 -9.792969 9.964844 -8.683594 10.082031 -7.355469 Z M 3.71875 -7.355469 "/></g></g></g></svg>